<mxfile host="app.diagrams.net" modified="2022-07-18T03:08:05.299Z" agent="5.0 (Windows NT 10.0; Win64; x64) AppleWebKit/537.36 (KHTML, like Gecko) Chrome/103.0.5060.114 Safari/537.36 Edg/103.0.1264.62" etag="atp1Gs4hacv7KS4o3J7M" version="20.1.1" type="github">
  <diagram id="rFcuGG_-fRMRac17p8qG" name="第 1 页">
    <mxGraphModel dx="1130" dy="719" grid="1" gridSize="10" guides="1" tooltips="1" connect="1" arrows="1" fold="1" page="1" pageScale="1" pageWidth="827" pageHeight="1169" math="0" shadow="0">
      <root>
        <mxCell id="0" />
        <mxCell id="1" parent="0" />
        <mxCell id="Un8PBWuGZQ2VLav2lR5n-1" value="客户端" style="rounded=1;whiteSpace=wrap;html=1;" vertex="1" parent="1">
          <mxGeometry x="40" y="260" width="120" height="60" as="geometry" />
        </mxCell>
        <mxCell id="Un8PBWuGZQ2VLav2lR5n-13" value="" style="swimlane;startSize=0;sketch=0;swimlaneLine=0;glass=0;strokeWidth=2;perimeterSpacing=1;fillColor=#fff2cc;strokeColor=#d6b656;" vertex="1" parent="1">
          <mxGeometry x="390" y="120" width="700" height="470" as="geometry" />
        </mxCell>
        <mxCell id="Un8PBWuGZQ2VLav2lR5n-29" value="" style="swimlane;startSize=0;swimlaneLine=0;rounded=0;shadow=0;sketch=1;glass=1;fillColor=#dae8fc;strokeColor=#6c8ebf;" vertex="1" parent="Un8PBWuGZQ2VLav2lR5n-13">
          <mxGeometry x="30" y="60" width="290" height="300" as="geometry" />
        </mxCell>
        <mxCell id="Un8PBWuGZQ2VLav2lR5n-30" value="内核空间" style="text;html=1;strokeColor=none;fillColor=none;align=center;verticalAlign=middle;whiteSpace=wrap;rounded=0;" vertex="1" parent="Un8PBWuGZQ2VLav2lR5n-29">
          <mxGeometry x="80" y="10" width="60" height="30" as="geometry" />
        </mxCell>
        <mxCell id="Un8PBWuGZQ2VLav2lR5n-51" value="内核空间内存" style="rounded=1;whiteSpace=wrap;html=1;" vertex="1" parent="Un8PBWuGZQ2VLav2lR5n-29">
          <mxGeometry x="50" y="190" width="90" height="40" as="geometry" />
        </mxCell>
        <mxCell id="Un8PBWuGZQ2VLav2lR5n-41" value="" style="endArrow=classic;html=1;rounded=0;exitX=0.001;exitY=0.345;exitDx=0;exitDy=0;exitPerimeter=0;entryX=0.25;entryY=0;entryDx=0;entryDy=0;" edge="1" parent="Un8PBWuGZQ2VLav2lR5n-13" source="Un8PBWuGZQ2VLav2lR5n-13" target="Un8PBWuGZQ2VLav2lR5n-51">
          <mxGeometry relative="1" as="geometry">
            <mxPoint x="120" y="170" as="sourcePoint" />
            <mxPoint x="102.5" y="270" as="targetPoint" />
            <Array as="points">
              <mxPoint x="103" y="160" />
            </Array>
          </mxGeometry>
        </mxCell>
        <mxCell id="Un8PBWuGZQ2VLav2lR5n-42" value="2. Copy到内核空间" style="edgeLabel;resizable=0;html=1;align=center;verticalAlign=middle;rounded=0;shadow=0;glass=0;sketch=0;strokeWidth=2;" connectable="0" vertex="1" parent="Un8PBWuGZQ2VLav2lR5n-41">
          <mxGeometry relative="1" as="geometry">
            <mxPoint x="-43" y="-14" as="offset" />
          </mxGeometry>
        </mxCell>
        <mxCell id="Un8PBWuGZQ2VLav2lR5n-36" value="" style="swimlane;startSize=0;swimlaneLine=0;rounded=0;shadow=0;sketch=1;glass=1;fillColor=#d5e8d4;strokeColor=#82b366;" vertex="1" parent="Un8PBWuGZQ2VLav2lR5n-13">
          <mxGeometry x="340" y="60" width="290" height="300" as="geometry" />
        </mxCell>
        <mxCell id="Un8PBWuGZQ2VLav2lR5n-37" value="用户空间" style="text;html=1;strokeColor=none;fillColor=none;align=center;verticalAlign=middle;whiteSpace=wrap;rounded=0;" vertex="1" parent="Un8PBWuGZQ2VLav2lR5n-36">
          <mxGeometry x="80" y="10" width="60" height="30" as="geometry" />
        </mxCell>
        <mxCell id="Un8PBWuGZQ2VLav2lR5n-56" value="Web服务进程" style="rounded=1;whiteSpace=wrap;html=1;shadow=0;glass=0;sketch=0;strokeWidth=2;" vertex="1" parent="Un8PBWuGZQ2VLav2lR5n-36">
          <mxGeometry x="20" y="150" width="180" height="30" as="geometry" />
        </mxCell>
        <mxCell id="Un8PBWuGZQ2VLav2lR5n-60" value="进程内存" style="rounded=1;whiteSpace=wrap;html=1;shadow=0;glass=0;sketch=0;strokeWidth=2;" vertex="1" parent="Un8PBWuGZQ2VLav2lR5n-36">
          <mxGeometry x="20" y="180" width="180" height="30" as="geometry" />
        </mxCell>
        <mxCell id="Un8PBWuGZQ2VLav2lR5n-47" value="" style="endArrow=classic;html=1;rounded=0;entryX=0.138;entryY=0.5;entryDx=0;entryDy=0;entryPerimeter=0;exitX=0.678;exitY=0;exitDx=0;exitDy=0;exitPerimeter=0;" edge="1" parent="Un8PBWuGZQ2VLav2lR5n-13" source="Un8PBWuGZQ2VLav2lR5n-51" target="Un8PBWuGZQ2VLav2lR5n-36">
          <mxGeometry relative="1" as="geometry">
            <mxPoint x="142" y="270" as="sourcePoint" />
            <mxPoint x="420" y="160" as="targetPoint" />
            <Array as="points">
              <mxPoint x="142" y="160" />
              <mxPoint x="380" y="160" />
            </Array>
          </mxGeometry>
        </mxCell>
        <mxCell id="Un8PBWuGZQ2VLav2lR5n-48" value="3. Copy到用户空间内存" style="edgeLabel;resizable=0;html=1;align=center;verticalAlign=middle;rounded=0;shadow=0;glass=0;sketch=0;strokeWidth=2;" connectable="0" vertex="1" parent="Un8PBWuGZQ2VLav2lR5n-47">
          <mxGeometry relative="1" as="geometry">
            <mxPoint x="-3" y="-10" as="offset" />
          </mxGeometry>
        </mxCell>
        <mxCell id="Un8PBWuGZQ2VLav2lR5n-19" value="TCP 连接" style="rounded=1;whiteSpace=wrap;html=1;" vertex="1" parent="1">
          <mxGeometry x="270" y="260" width="120" height="60" as="geometry" />
        </mxCell>
        <mxCell id="Un8PBWuGZQ2VLav2lR5n-20" value="" style="endArrow=classic;html=1;rounded=0;fillColor=#dae8fc;strokeColor=#6c8ebf;entryX=0;entryY=0.333;entryDx=0;entryDy=0;entryPerimeter=0;exitX=1;exitY=0.333;exitDx=0;exitDy=0;exitPerimeter=0;" edge="1" parent="1" source="Un8PBWuGZQ2VLav2lR5n-1" target="Un8PBWuGZQ2VLav2lR5n-19">
          <mxGeometry relative="1" as="geometry">
            <mxPoint x="130" y="280" as="sourcePoint" />
            <mxPoint x="260" y="280" as="targetPoint" />
          </mxGeometry>
        </mxCell>
        <mxCell id="Un8PBWuGZQ2VLav2lR5n-21" value="1.网络请求" style="edgeLabel;resizable=0;html=1;align=center;verticalAlign=middle;" connectable="0" vertex="1" parent="Un8PBWuGZQ2VLav2lR5n-20">
          <mxGeometry relative="1" as="geometry">
            <mxPoint x="5" y="-10" as="offset" />
          </mxGeometry>
        </mxCell>
        <mxCell id="Un8PBWuGZQ2VLav2lR5n-22" value="" style="endArrow=classic;html=1;rounded=0;entryX=1;entryY=0.75;entryDx=0;entryDy=0;exitX=0;exitY=0.75;exitDx=0;exitDy=0;fillColor=#d5e8d4;strokeColor=#82b366;" edge="1" parent="1" source="Un8PBWuGZQ2VLav2lR5n-19" target="Un8PBWuGZQ2VLav2lR5n-1">
          <mxGeometry relative="1" as="geometry">
            <mxPoint x="270" y="300" as="sourcePoint" />
            <mxPoint x="80" y="340" as="targetPoint" />
          </mxGeometry>
        </mxCell>
        <mxCell id="Un8PBWuGZQ2VLav2lR5n-23" value="7.返回数据" style="edgeLabel;resizable=0;html=1;align=center;verticalAlign=middle;" connectable="0" vertex="1" parent="Un8PBWuGZQ2VLav2lR5n-22">
          <mxGeometry relative="1" as="geometry">
            <mxPoint x="5" y="15" as="offset" />
          </mxGeometry>
        </mxCell>
      </root>
    </mxGraphModel>
  </diagram>
</mxfile>
